<svg width="141" height="36" viewBox="0 0 141 36" fill="none" xmlns="http://www.w3.org/2000/svg">
<path d="M127.528 22.6259C127.75 22.6963 127.912 22.8263 128.009 23.0267C128.107 23.2217 128.139 23.4492 128.101 23.6984C128.036 24.1155 127.831 24.4405 127.479 24.668C127.133 24.8955 126.701 25.0093 126.171 25.0093H124.414C124.236 25.0093 124.111 24.9659 124.036 24.8738C123.966 24.7763 123.949 24.6409 123.987 24.4622L124.82 20.9575C124.863 20.7788 124.944 20.6433 125.058 20.5458C125.176 20.4483 125.328 20.3996 125.506 20.3996H127.106C127.609 20.3996 127.982 20.5079 128.209 20.7246C128.447 20.9358 128.539 21.2175 128.485 21.5642C128.404 22.0625 128.085 22.4146 127.528 22.6259ZM126.528 22.2088C126.782 22.2088 126.966 22.1763 127.079 22.1113C127.198 22.0409 127.274 21.9217 127.301 21.7538C127.323 21.6075 127.29 21.4938 127.204 21.4179C127.117 21.3421 126.971 21.3042 126.75 21.3042H125.906L125.69 22.2088H126.528ZM126.204 24.0992C126.452 24.0992 126.636 24.0613 126.766 23.9855C126.896 23.9097 126.971 23.7851 127.004 23.6009C127.031 23.4384 126.998 23.3192 126.906 23.2434C126.82 23.1621 126.663 23.1188 126.442 23.1188H125.479L125.247 24.0992H126.204ZM130.442 21.3259L130.231 22.2034H131.745C131.918 22.2034 132.042 22.2413 132.118 22.3171C132.199 22.393 132.226 22.4959 132.204 22.6313C132.177 22.7992 132.107 22.9292 131.994 23.0105C131.885 23.0863 131.729 23.1296 131.523 23.1296H130.01L129.782 24.083H131.437C131.61 24.083 131.734 24.1209 131.81 24.2022C131.891 24.278 131.918 24.3863 131.896 24.5218C131.848 24.8468 131.615 25.0147 131.21 25.0147H128.95C128.772 25.0147 128.647 24.9659 128.566 24.8684C128.496 24.7709 128.48 24.6355 128.528 24.4568L129.35 20.9575C129.393 20.7788 129.48 20.6433 129.599 20.5458C129.718 20.4483 129.864 20.3996 130.037 20.3996H132.302C132.475 20.3996 132.599 20.4375 132.675 20.5187C132.756 20.5946 132.783 20.6975 132.761 20.8275C132.707 21.1633 132.48 21.3313 132.075 21.3313H130.442V21.3259ZM134.037 25.0418C133.853 25.0418 133.718 24.9876 133.632 24.8847C133.551 24.7763 133.529 24.6301 133.578 24.4513L134.307 21.3692H133.378C133.026 21.3692 132.869 21.2229 132.918 20.925C132.945 20.7354 133.021 20.6 133.134 20.5187C133.248 20.4375 133.405 20.3942 133.61 20.3942H136.664C137.016 20.3942 137.167 20.5458 137.124 20.8438C137.097 21.0333 137.021 21.1688 136.913 21.25C136.805 21.3259 136.648 21.3692 136.437 21.3692H135.518L134.789 24.4459C134.745 24.6247 134.659 24.7709 134.524 24.8793C134.383 24.9876 134.221 25.0418 134.037 25.0418ZM140.47 24.3268C140.487 24.3918 140.487 24.4568 140.481 24.5163C140.459 24.6626 140.378 24.7926 140.238 24.8955C140.097 24.9984 139.957 25.0472 139.8 25.0472C139.703 25.0472 139.611 25.0201 139.54 24.9713C139.465 24.9172 139.416 24.8305 139.394 24.7222L139.265 24.0559H137.221L136.783 24.7168C136.708 24.8251 136.621 24.9063 136.524 24.9605C136.427 25.0147 136.329 25.0364 136.232 25.0364C136.086 25.0364 135.967 24.993 135.87 24.9009C135.778 24.8088 135.74 24.6951 135.762 24.5543C135.778 24.4676 135.816 24.3755 135.881 24.278L138.378 20.7246C138.465 20.6 138.567 20.5133 138.697 20.4483C138.827 20.3833 138.957 20.3508 139.092 20.3508C139.227 20.3508 139.346 20.3833 139.443 20.4483C139.54 20.5079 139.605 20.6 139.632 20.7192L140.47 24.3268ZM137.821 23.1513H139.097L138.805 21.6671L137.821 23.1513Z" fill="#303030"/>
<path d="M81.5386 10.7146C77.6138 10.7146 74.4458 13.8997 74.4458 17.8323C74.4458 21.7649 77.6138 24.9499 81.5386 24.9499C85.4634 24.9499 88.653 21.7649 88.653 17.8323C88.6584 13.8997 85.4634 10.7146 81.5386 10.7146ZM84.5984 16.5864L81.0682 20.1127C81.0304 20.1669 80.9601 20.2048 80.9061 20.2319C80.6358 20.4215 80.2465 20.3782 80.0141 20.1506L78.5058 18.6394C78.2246 18.3577 78.2246 17.9081 78.5058 17.6264C78.7761 17.3447 79.2356 17.3447 79.5059 17.6264L80.5276 18.6394L83.5875 15.5735C83.8686 15.2918 84.3173 15.2918 84.5984 15.5735C84.8687 15.8605 84.8687 16.3047 84.5984 16.5864Z" fill="#69BC45"/>
<path d="M31.4839 20.9792C31.8082 20.9792 32.0623 21.1038 32.2515 21.3476C32.4623 21.5967 32.5651 21.9272 32.5651 22.3442C32.5651 22.9347 32.2137 23.4276 31.5163 23.823C30.873 24.186 30.1431 24.4785 29.3268 24.706C28.5105 24.9118 27.7374 25.0201 26.9968 25.0201C24.7641 25.0201 22.9909 24.3755 21.6826 23.0864C20.3744 21.7972 19.7202 20.0313 19.7202 17.7941C19.7202 16.3695 20.0067 15.1074 20.5744 14.0078C21.142 12.9082 21.9367 12.0523 22.9585 11.4457C24.0018 10.839 25.175 10.5356 26.4832 10.5356C27.732 10.5356 28.8241 10.8119 29.7485 11.359C30.6783 11.9115 31.3974 12.6861 31.9055 13.6936C32.4191 14.7012 32.6732 15.8874 32.6732 17.2525C32.6732 18.0704 32.311 18.4767 31.592 18.4767H23.2125C23.3261 19.7875 23.6937 20.7517 24.3208 21.3801C24.9479 21.9867 25.8561 22.2901 27.0509 22.2901C27.6563 22.2901 28.1861 22.2142 28.6402 22.0626C29.116 21.9109 29.6458 21.6997 30.2296 21.4342C30.8027 21.1309 31.219 20.9792 31.4839 20.9792ZM26.5697 13.0328C25.602 13.0328 24.829 13.3361 24.2397 13.9428C23.6721 14.5495 23.3315 15.4216 23.218 16.5645H29.6404C29.6025 15.4053 29.316 14.5332 28.7862 13.9428C28.2564 13.3361 27.5158 13.0328 26.5697 13.0328Z" fill="#398BCB"/>
<path d="M41.604 10.5303C43.5339 10.5303 44.9665 11.0124 45.8964 11.982C46.8425 12.9299 47.3182 14.3816 47.3182 16.3371V23.2814C47.3182 23.796 47.1668 24.2023 46.8641 24.5056C46.5613 24.7927 46.1451 24.9335 45.6153 24.9335C45.1233 24.9335 44.7179 24.7819 44.3935 24.4785C44.0908 24.1752 43.9394 23.7743 43.9394 23.2814V22.6531C43.615 23.3952 43.1069 23.9748 42.4041 24.3918C41.7229 24.8089 40.9282 25.0202 40.02 25.0202C39.0901 25.0202 38.2468 24.8306 37.4899 24.4514C36.7331 24.0723 36.133 23.5522 35.7005 22.886C35.2626 22.2197 35.0464 21.483 35.0464 20.6651C35.0464 19.6413 35.3005 18.8342 35.8141 18.2438C36.3438 17.6534 37.198 17.2308 38.3711 16.96C39.5442 16.6946 41.1661 16.5592 43.2312 16.5592H43.9394V15.9037C43.9394 14.972 43.7394 14.3004 43.3447 13.8833C42.9447 13.4445 42.3013 13.2278 41.4147 13.2278C40.8633 13.2278 40.3065 13.3145 39.7389 13.4824C39.1712 13.6341 38.4955 13.8616 37.7224 14.1649C37.2304 14.4141 36.8682 14.5333 36.6412 14.5333C36.3006 14.5333 36.0141 14.4087 35.787 14.1649C35.5762 13.9158 35.4735 13.5962 35.4735 13.1953C35.4735 12.8703 35.5492 12.5995 35.7005 12.372C35.8735 12.1228 36.1438 11.8953 36.5222 11.6895C37.1872 11.3265 37.9711 11.0449 38.8793 10.8336C39.8037 10.6332 40.7174 10.5303 41.604 10.5303ZM40.7228 22.4581C41.6688 22.4581 42.4365 22.1439 43.0258 21.5209C43.6312 20.8763 43.934 20.0476 43.934 19.0455V18.4496H43.4204C42.15 18.4496 41.1661 18.5038 40.4633 18.623C39.7605 18.7367 39.2631 18.9371 38.955 19.2188C38.6522 19.5059 38.5009 19.8905 38.5009 20.3834C38.5009 20.9901 38.7117 21.4939 39.128 21.8947C39.5713 22.2685 40.1011 22.4581 40.7228 22.4581Z" fill="#398BCB"/>
<path d="M52.6862 24.9605C52.1726 24.9605 51.7509 24.8197 51.4103 24.5326C51.086 24.2293 50.9292 23.8013 50.9292 23.2543V6.25635C50.9292 5.70384 51.0914 5.28675 51.4103 5.00508C51.7509 4.71799 52.178 4.57715 52.6862 4.57715C53.1998 4.57715 53.6214 4.71799 53.962 5.00508C54.3026 5.29217 54.4756 5.70926 54.4756 6.25635V23.2543C54.4756 23.8068 54.3026 24.2293 53.962 24.5326C53.6268 24.8197 53.1998 24.9605 52.6862 24.9605Z" fill="#398BCB"/>
<path d="M69.7318 4.58252C70.2616 4.58252 70.6995 4.73419 71.04 5.03753C71.3806 5.34087 71.5536 5.74171 71.5536 6.23464V23.2596C71.5536 23.7742 71.3914 24.1805 71.0725 24.4838C70.7481 24.7872 70.3264 24.9388 69.7966 24.9388C69.2668 24.9388 68.8398 24.7872 68.5208 24.4838C68.1964 24.1805 68.0397 23.7742 68.0397 23.2596V22.55C67.6234 23.33 67.0179 23.9367 66.2232 24.3701C65.4447 24.8088 64.5581 25.0255 63.5526 25.0255C62.3579 25.0255 61.2875 24.7222 60.3414 24.1155C59.4116 23.5088 58.6817 22.6529 58.1519 21.5533C57.6384 20.4321 57.3843 19.1537 57.3843 17.7128C57.3843 16.272 57.6384 15.0098 58.1519 13.9265C58.6817 12.8431 59.4116 12.0089 60.3414 11.4239C61.2712 10.8335 62.3417 10.541 63.5526 10.541C64.5581 10.541 65.4447 10.7468 66.2232 11.1693C67.0017 11.5864 67.5964 12.1769 68.0126 12.9352V6.17506C68.0126 5.69838 68.164 5.3192 68.4667 5.03753C68.7749 4.73419 69.202 4.58252 69.7318 4.58252ZM64.4771 22.2575C65.6123 22.2575 66.4827 21.8675 67.0882 21.0929C67.7153 20.3129 68.0235 19.2024 68.0235 17.7616C68.0235 16.3207 67.7099 15.2157 67.0882 14.4573C66.4827 13.6773 65.6177 13.2927 64.5041 13.2927C63.3688 13.2927 62.4876 13.6719 61.8605 14.4302C61.2334 15.1886 60.9253 16.2828 60.9253 17.702C60.9253 19.1429 61.2388 20.2641 61.8605 21.0604C62.4876 21.8621 63.358 22.2575 64.4771 22.2575Z" fill="#398BCB"/>
<path d="M99.6167 10.5303C101.282 10.5303 102.525 11.007 103.336 11.9549C104.152 12.9028 104.558 14.3383 104.558 16.2558V23.2597C104.558 23.7906 104.396 24.2077 104.077 24.511C103.774 24.8144 103.347 24.966 102.801 24.966C102.255 24.966 101.817 24.8144 101.493 24.511C101.174 24.2077 101.011 23.7906 101.011 23.2597V16.4508C101.011 15.3675 100.806 14.582 100.384 14.0891C99.9843 13.5962 99.3518 13.347 98.4814 13.347C97.4596 13.347 96.6325 13.672 96.0108 14.3166C95.4053 14.9612 95.1026 15.8279 95.1026 16.9058V23.2543C95.1026 23.7852 94.9404 24.2023 94.6214 24.5056C94.3025 24.8089 93.8646 24.9606 93.3132 24.9606C92.7671 24.9606 92.3293 24.8089 92.0049 24.5056C91.7022 24.2023 91.5508 23.7852 91.5508 23.2543V12.2366C91.5508 11.7436 91.713 11.3428 92.0319 11.0395C92.3563 10.7361 92.7888 10.5844 93.3402 10.5844C93.8321 10.5844 94.2322 10.7361 94.5349 11.0395C94.8593 11.3265 95.0161 11.7057 95.0161 12.177V12.9462C95.4918 12.1661 96.1243 11.5703 96.919 11.1532C97.7137 10.7361 98.6111 10.5303 99.6167 10.5303Z" fill="#398BCB"/>
<path d="M119.16 20.9792C119.484 20.9792 119.738 21.1038 119.927 21.3476C120.138 21.5967 120.241 21.9272 120.241 22.3442C120.241 22.9347 119.889 23.4276 119.192 23.823C118.549 24.186 117.819 24.4785 117.003 24.706C116.186 24.9118 115.413 25.0201 114.673 25.0201C112.44 25.0201 110.667 24.3755 109.358 23.0864C108.05 21.7972 107.396 20.0313 107.396 17.7941C107.396 16.3695 107.683 15.1074 108.25 14.0078C108.818 12.9082 109.612 12.0523 110.634 11.4457C111.678 10.839 112.851 10.5356 114.159 10.5356C115.408 10.5356 116.5 10.8119 117.424 11.359C118.354 11.9115 119.073 12.6861 119.581 13.6936C120.095 14.7012 120.349 15.8874 120.349 17.2525C120.349 18.0704 119.987 18.4767 119.268 18.4767H110.888C111.002 19.7875 111.369 20.7517 111.997 21.3801C112.624 21.9867 113.532 22.2901 114.727 22.2901C115.332 22.2901 115.862 22.2142 116.316 22.0626C116.792 21.9109 117.322 21.6997 117.905 21.4342C118.478 21.1309 118.895 20.9792 119.16 20.9792ZM114.246 13.0328C113.278 13.0328 112.505 13.3361 111.915 13.9428C111.348 14.5495 111.007 15.4216 110.894 16.5645H117.316C117.278 15.4053 116.992 14.5332 116.462 13.9428C115.932 13.3361 115.192 13.0328 114.246 13.0328Z" fill="#398BCB"/>
<path d="M16.7037 1.78212C16.7037 0.796268 15.9145 0 14.9414 0C13.9683 0 13.179 0.796268 13.179 1.78212V11.9494C12.087 10.7957 10.6219 9.98856 8.94602 9.72856C8.19999 9.61481 7.45395 9.62022 6.71331 9.73397L6.6106 9.29522C6.57276 9.14355 6.45923 9.02437 6.30245 8.99187C6.14567 8.95937 5.9943 9.01896 5.897 9.14355L4.23733 11.3644C4.16705 11.4619 4.14002 11.5811 4.16705 11.6949C4.19408 11.8086 4.26977 11.9061 4.37789 11.9603L6.84306 13.2224C6.90253 13.2549 6.96199 13.2657 7.02687 13.2657C7.11336 13.2657 7.19986 13.2386 7.27555 13.1791C7.39989 13.0816 7.45395 12.9245 7.42151 12.7728L7.28636 12.1932C7.72425 12.1444 8.16214 12.1553 8.60544 12.2257C11.0057 12.6157 12.7141 14.6578 12.6708 17.0737C12.6492 18.4117 12.1032 19.6521 11.1409 20.5513C10.8868 20.7896 10.8598 21.1742 11.0652 21.4559L11.7626 22.3876C11.8815 22.5393 12.0491 22.6368 12.2383 22.653C12.2599 22.653 12.2816 22.6584 12.3032 22.6584C12.4762 22.6584 12.6438 22.5934 12.7735 22.4743C12.9141 22.3443 13.0492 22.2143 13.179 22.0788V23.1839C13.179 24.1697 13.9683 24.966 14.9414 24.966C15.9145 24.966 16.7037 24.1697 16.7037 23.1839V1.78212Z" fill="#398BCB"/>
<path d="M10.8109 22.0626L8.34574 20.8005C8.20518 20.7301 8.03759 20.7464 7.91325 20.8439C7.78891 20.9414 7.73485 21.0984 7.76729 21.2501L7.90244 21.8297C7.45914 21.8785 7.00503 21.8676 6.55632 21.7918C4.2263 21.3964 2.48554 19.3272 2.51798 16.9708C2.5396 15.6275 3.08021 14.3816 4.05331 13.4716C4.30739 13.2333 4.33442 12.8487 4.12359 12.567L3.4262 11.6353C3.30727 11.4836 3.13968 11.3861 2.95047 11.3699C2.75585 11.3536 2.56123 11.4186 2.41526 11.5486C0.928592 12.8974 0.0744315 14.7608 0.00415242 16.7867C-0.120187 20.5026 2.56123 23.7364 6.25358 24.3052C6.6266 24.3648 7.00503 24.3919 7.37805 24.3919C7.74566 24.3919 8.11868 24.3539 8.48089 24.2998L8.5836 24.7385C8.62145 24.8956 8.73497 25.0094 8.89175 25.0419C8.91878 25.0473 8.94581 25.0527 8.97825 25.0527C9.10259 25.0527 9.22152 24.9931 9.29721 24.8902L10.9515 22.6693C11.0217 22.5718 11.0488 22.4526 11.0217 22.3389C10.9947 22.2143 10.919 22.1168 10.8109 22.0626Z" fill="#398BCB"/>
<path d="M24.1421 35.9896C23.8664 35.9896 23.7258 35.8487 23.7258 35.5616V32.0516H22.4608C22.2229 32.0516 22.104 31.9324 22.104 31.6995C22.104 31.472 22.2229 31.3528 22.4608 31.3528H25.8234C26.0613 31.3528 26.1802 31.4665 26.1802 31.6995C26.1802 31.9324 26.0613 32.0516 25.8234 32.0516H24.5584V35.5616C24.553 35.8487 24.4178 35.9896 24.1421 35.9896Z" fill="#282827"/>
<path d="M27.3317 35.9893C27.0614 35.9893 26.9316 35.8484 26.9316 35.5722V31.71C26.9316 31.4392 27.0668 31.2983 27.3317 31.2983C27.602 31.2983 27.7426 31.4338 27.7426 31.71V33.2159C27.8507 33.0425 27.9966 32.9125 28.175 32.8205C28.3588 32.7338 28.5589 32.685 28.7805 32.685C29.5266 32.685 29.905 33.1184 29.905 33.9905V35.5614C29.905 35.8376 29.7698 35.9784 29.5049 35.9784C29.2346 35.9784 29.0941 35.8376 29.0941 35.5614V34.0284C29.0941 33.7792 29.0454 33.6005 28.9535 33.4867C28.8616 33.373 28.7156 33.3188 28.521 33.3188C28.2832 33.3188 28.0939 33.3946 27.9534 33.5409C27.8128 33.6926 27.7426 33.8876 27.7426 34.1367V35.5614C27.7426 35.8484 27.602 35.9893 27.3317 35.9893Z" fill="#282827"/>
<path d="M32.2891 36.0001C31.9323 36.0001 31.6187 35.9351 31.3593 35.7997C31.0998 35.6642 30.8997 35.4747 30.7592 35.2255C30.6186 34.9763 30.5483 34.6838 30.5483 34.348C30.5483 34.0175 30.6186 33.7305 30.7538 33.4813C30.8889 33.2321 31.0781 33.0425 31.316 32.9017C31.5539 32.7608 31.8296 32.6904 32.1377 32.6904C32.5864 32.6904 32.9432 32.8313 33.2027 33.1184C33.4622 33.4054 33.5974 33.7955 33.5974 34.2884C33.5974 34.4509 33.4947 34.5267 33.2838 34.5267H31.3268C31.3863 35.0955 31.7106 35.3772 32.2999 35.3772C32.4134 35.3772 32.5378 35.3609 32.6783 35.3338C32.8189 35.3067 32.954 35.258 33.0784 35.1876C33.1919 35.1226 33.2838 35.1009 33.3649 35.128C33.4406 35.1497 33.5001 35.1984 33.5325 35.2688C33.5649 35.3392 33.5703 35.4151 33.5433 35.5017C33.5217 35.5884 33.4568 35.6588 33.3595 35.7184C33.2081 35.8159 33.0351 35.8863 32.8351 35.9297C32.6405 35.9784 32.4567 36.0001 32.2891 36.0001ZM32.1702 33.2484C31.9323 33.2484 31.7377 33.3242 31.5917 33.4704C31.4458 33.6167 31.3538 33.8171 31.3268 34.0663H32.9216C32.9054 33.8009 32.8297 33.6005 32.7054 33.4596C32.581 33.3188 32.4026 33.2484 32.1702 33.2484Z" fill="#282827"/>
<path d="M37.9764 36.0001C37.3493 36.0001 36.8681 35.8376 36.5384 35.5072C36.2086 35.1822 36.041 34.6947 36.041 34.0555V31.7208C36.041 31.4392 36.1816 31.2983 36.4573 31.2983C36.733 31.2983 36.8735 31.4392 36.8735 31.7208V34.0501C36.8735 34.4617 36.9655 34.7705 37.1547 34.9763C37.3439 35.1822 37.6142 35.2851 37.9764 35.2851C38.7062 35.2851 39.0738 34.8734 39.0738 34.0501V31.7208C39.0738 31.4392 39.2144 31.2983 39.4901 31.2983C39.7604 31.2983 39.901 31.4392 39.901 31.7208V34.0555C39.901 34.6947 39.7388 35.1822 39.4144 35.5072C39.0846 35.8376 38.6089 36.0001 37.9764 36.0001Z" fill="#282827"/>
<path d="M41.1877 35.9893C40.9173 35.9893 40.7876 35.8484 40.7876 35.5722V33.1129C40.7876 32.8421 40.9173 32.7013 41.1822 32.7013C41.4471 32.7013 41.5769 32.8367 41.5769 33.1129V33.2484C41.685 33.0642 41.831 32.9288 42.0148 32.8313C42.1986 32.7338 42.404 32.6904 42.6365 32.6904C43.3825 32.6904 43.761 33.1238 43.761 33.9959V35.5667C43.761 35.843 43.6258 35.9838 43.3609 35.9838C43.0906 35.9838 42.95 35.843 42.95 35.5667V34.0338C42.95 33.7846 42.9014 33.6059 42.8095 33.4921C42.7176 33.3784 42.5716 33.3242 42.377 33.3242C42.1391 33.3242 41.9499 33.4 41.8094 33.5463C41.6688 33.698 41.5985 33.893 41.5985 34.1421V35.5667C41.5985 35.8484 41.4634 35.9893 41.1877 35.9893Z" fill="#282827"/>
<path d="M44.9826 32.111C44.8312 32.111 44.7123 32.0731 44.6312 31.9972C44.5447 31.9214 44.5068 31.8185 44.5068 31.6831C44.5068 31.5422 44.5501 31.4393 44.6312 31.3635C44.7177 31.2876 44.8312 31.2551 44.9826 31.2551C45.3015 31.2551 45.4637 31.396 45.4637 31.6831C45.4637 31.9647 45.3015 32.111 44.9826 32.111ZM44.9826 35.984C44.8528 35.984 44.7555 35.9461 44.6852 35.8648C44.615 35.789 44.5825 35.6806 44.5825 35.5398V33.1564C44.5825 32.8639 44.7177 32.7122 44.9826 32.7122C45.2529 32.7122 45.3934 32.8585 45.3934 33.1564V35.5398C45.3934 35.6806 45.361 35.789 45.2907 35.8648C45.2204 35.9461 45.1177 35.984 44.9826 35.984Z" fill="#282827"/>
<path d="M46.8582 35.9894C46.5879 35.9894 46.4474 35.8486 46.4474 35.5723V33.3677H46.15C45.9338 33.3677 45.8257 33.2648 45.8257 33.0643C45.8257 32.8585 45.9338 32.761 46.15 32.761H46.4474V32.7556C46.4474 32.3168 46.5555 31.9864 46.7772 31.7589C46.9988 31.5314 47.3178 31.4014 47.7394 31.358L47.9341 31.3364C48.0584 31.3255 48.1503 31.3472 48.2098 31.4014C48.2692 31.4555 48.3017 31.526 48.3017 31.6072C48.3071 31.6885 48.2854 31.7589 48.2476 31.8239C48.2044 31.8889 48.1449 31.9268 48.0692 31.9322L47.9124 31.9431C47.6854 31.9593 47.5178 32.0243 47.4151 32.1326C47.3124 32.241 47.2583 32.4035 47.2583 32.6202V32.7556H48.9504C49.2207 32.7556 49.3504 32.9018 49.3504 33.1889V35.5344C49.3504 35.6752 49.318 35.7836 49.2477 35.8594C49.1829 35.9352 49.0801 35.9786 48.945 35.9786C48.8152 35.9786 48.7125 35.9406 48.6422 35.8594C48.572 35.7836 48.5341 35.6752 48.5341 35.5344V33.3677H47.2475V35.5723C47.2583 35.8486 47.1285 35.9894 46.8582 35.9894ZM48.9666 32.111C48.6585 32.111 48.5071 31.9701 48.5071 31.6831C48.5071 31.396 48.6585 31.2551 48.9666 31.2551C49.2802 31.2551 49.4315 31.396 49.4315 31.6831C49.4315 31.8185 49.3937 31.9214 49.3126 31.9972C49.2315 32.0731 49.118 32.111 48.9666 32.111Z" fill="#282827"/>
<path d="M51.7618 36.0001C51.405 36.0001 51.0914 35.9351 50.8319 35.7997C50.5724 35.6642 50.3724 35.4747 50.2318 35.2255C50.0913 34.9763 50.021 34.6838 50.021 34.348C50.021 34.0175 50.0913 33.7305 50.2264 33.4813C50.3616 33.2321 50.5508 33.0425 50.7887 32.9017C51.0265 32.7608 51.3022 32.6904 51.6104 32.6904C52.0591 32.6904 52.4159 32.8313 52.6754 33.1184C52.9349 33.4054 53.07 33.7955 53.07 34.2884C53.07 34.4509 52.9673 34.5267 52.7565 34.5267H50.7995C50.8589 35.0955 51.1833 35.3772 51.7726 35.3772C51.8861 35.3772 52.0104 35.3609 52.151 35.3338C52.2915 35.3067 52.4267 35.258 52.551 35.1876C52.6646 35.1226 52.7565 35.1009 52.8376 35.128C52.9132 35.1497 52.9727 35.1984 53.0051 35.2688C53.0376 35.3392 53.043 35.4151 53.016 35.5017C52.9943 35.5884 52.9295 35.6588 52.8322 35.7184C52.6808 35.8159 52.5078 35.8863 52.3078 35.9297C52.1131 35.9784 51.9293 36.0001 51.7618 36.0001ZM51.6482 33.2484C51.4104 33.2484 51.2157 33.3242 51.0698 33.4704C50.9238 33.6167 50.8319 33.8171 50.8049 34.0663H52.3997C52.3834 33.8009 52.3078 33.6005 52.1834 33.4596C52.0537 33.3188 51.8753 33.2484 51.6482 33.2484Z" fill="#282827"/>
<path d="M54.9353 36.0001C54.6596 36.0001 54.4163 35.9351 54.2055 35.7997C53.9946 35.6643 53.8325 35.4747 53.7135 35.2255C53.5946 34.9763 53.5405 34.6838 53.5405 34.3426C53.5405 34.0013 53.6 33.7088 53.7135 33.4596C53.8325 33.2159 53.9946 33.0263 54.2055 32.8909C54.4163 32.7555 54.6596 32.6905 54.9353 32.6905C55.1623 32.6905 55.3624 32.7392 55.5462 32.8421C55.73 32.9396 55.8651 33.075 55.957 33.2376V31.71C55.957 31.4392 56.0922 31.2983 56.3571 31.2983C56.6274 31.2983 56.7679 31.4338 56.7679 31.71V35.5722C56.7679 35.8484 56.6328 35.9893 56.3679 35.9893C56.0976 35.9893 55.9679 35.8484 55.9679 35.5722V35.4368C55.876 35.6101 55.7408 35.7455 55.557 35.8484C55.3732 35.9514 55.1623 36.0001 54.9353 36.0001ZM55.1623 35.3826C55.4056 35.3826 55.6002 35.2959 55.7462 35.1172C55.8922 34.9438 55.9679 34.6838 55.9679 34.3426C55.9679 33.9959 55.8922 33.7359 55.7462 33.568C55.6002 33.3946 55.4056 33.3134 55.1623 33.3134C54.9191 33.3134 54.7245 33.4001 54.5785 33.568C54.4325 33.7413 54.3568 33.9959 54.3568 34.3426C54.3568 34.6838 54.4325 34.9438 54.5785 35.1172C54.7245 35.2959 54.9191 35.3826 55.1623 35.3826Z" fill="#282827"/>
<path d="M61.0225 36.0002C60.7306 36.0002 60.4495 35.9677 60.1738 35.9027C59.8981 35.8377 59.6602 35.7402 59.4548 35.6102C59.3574 35.5452 59.2926 35.4639 59.2709 35.3719C59.2493 35.2744 59.2547 35.1877 59.2926 35.101C59.3304 35.0144 59.3899 34.9602 59.4656 34.9277C59.5467 34.8952 59.6386 34.9114 59.7413 34.9764C59.9305 35.0902 60.1305 35.1714 60.3468 35.2256C60.5576 35.2798 60.7792 35.3014 61.0171 35.3014C61.3577 35.3014 61.6064 35.2419 61.7632 35.1281C61.9199 35.0144 61.9956 34.8627 61.9956 34.6839C61.9956 34.5323 61.9416 34.4131 61.828 34.3264C61.7199 34.2398 61.5307 34.1693 61.2604 34.1097L60.5468 33.9581C59.7359 33.7847 59.325 33.3676 59.325 32.7014C59.325 32.4143 59.4007 32.1651 59.5521 31.9539C59.7034 31.7426 59.9143 31.5747 60.1792 31.4609C60.4495 31.3418 60.7576 31.2876 61.109 31.2876C61.3685 31.2876 61.6172 31.3201 61.8497 31.3851C62.0821 31.4501 62.293 31.5476 62.4768 31.6722C62.5633 31.7318 62.6173 31.8076 62.6335 31.8943C62.6498 31.9809 62.6389 32.0676 62.6011 32.1435C62.5633 32.2193 62.4984 32.2735 62.4173 32.3005C62.3308 32.3276 62.2335 32.3114 62.12 32.2464C61.9578 32.1543 61.7956 32.0893 61.6334 32.0514C61.4712 32.0134 61.2928 31.9918 61.1036 31.9918C60.8063 31.9918 60.5738 32.0568 60.4008 32.1814C60.2332 32.306 60.1467 32.4739 60.1467 32.6743C60.1467 32.8314 60.2008 32.956 60.3035 33.0481C60.4062 33.1401 60.5846 33.216 60.8333 33.2647L61.5415 33.4164C61.9686 33.5085 62.2875 33.6493 62.4984 33.8443C62.7092 34.0393 62.8119 34.2993 62.8119 34.6243C62.8119 34.8952 62.7363 35.1389 62.5903 35.3448C62.4443 35.5506 62.2335 35.7131 61.9632 35.8269C61.7037 35.946 61.3847 36.0002 61.0225 36.0002Z" fill="#282827"/>
<path d="M65.023 36.0001C64.6662 36.0001 64.3526 35.9351 64.0931 35.7997C63.8336 35.6642 63.6336 35.4747 63.4931 35.2255C63.3525 34.9763 63.2822 34.6838 63.2822 34.348C63.2822 34.0175 63.3525 33.7305 63.4877 33.4813C63.6228 33.2321 63.812 33.0425 64.0499 32.9017C64.2878 32.7608 64.5635 32.6904 64.8716 32.6904C65.3203 32.6904 65.6771 32.8313 65.9366 33.1184C66.1961 33.4054 66.3312 33.7955 66.3312 34.2884C66.3312 34.4509 66.2285 34.5267 66.0177 34.5267H64.0607C64.1202 35.0955 64.4445 35.3772 65.0338 35.3772C65.1473 35.3772 65.2717 35.3609 65.4122 35.3338C65.5528 35.3067 65.6879 35.258 65.8123 35.1876C65.9258 35.1226 66.0177 35.1009 66.0988 35.128C66.1745 35.1497 66.2339 35.1984 66.2664 35.2688C66.2988 35.3392 66.3042 35.4151 66.2772 35.5017C66.2556 35.5884 66.1907 35.6588 66.0934 35.7184C65.942 35.8159 65.769 35.8863 65.569 35.9297C65.3744 35.9784 65.1906 36.0001 65.023 36.0001ZM64.904 33.2484C64.6662 33.2484 64.4716 33.3242 64.3256 33.4704C64.1796 33.6167 64.0877 33.8171 64.0607 34.0663H65.6555C65.6393 33.8009 65.5636 33.6005 65.4392 33.4596C65.3149 33.3188 65.1365 33.2484 64.904 33.2484Z" fill="#282827"/>
<path d="M68.0558 36.0001C67.3314 36.0001 66.9746 35.5939 66.9746 34.7868V31.71C66.9746 31.4392 67.1098 31.2983 67.3747 31.2983C67.645 31.2983 67.7855 31.4338 67.7855 31.71V34.7434C67.7855 35.1334 67.9477 35.3284 68.2721 35.3284C68.3045 35.3284 68.3369 35.3284 68.3694 35.323C68.4018 35.323 68.4288 35.3176 68.4613 35.3122C68.5207 35.3014 68.564 35.3176 68.5856 35.3609C68.6072 35.4043 68.6181 35.4855 68.6181 35.6101C68.6181 35.7184 68.5964 35.8051 68.5532 35.8647C68.5099 35.9243 68.4396 35.9622 68.3369 35.973C68.245 35.9947 68.1531 36.0001 68.0558 36.0001Z" fill="#282827"/>
<path d="M70.1261 36.0001C69.4017 36.0001 69.0449 35.5939 69.0449 34.7868V31.71C69.0449 31.4392 69.1801 31.2983 69.445 31.2983C69.7153 31.2983 69.8558 31.4338 69.8558 31.71V34.7434C69.8558 35.1334 70.018 35.3284 70.3424 35.3284C70.3748 35.3284 70.4072 35.3284 70.4397 35.323C70.4721 35.323 70.4991 35.3176 70.5316 35.3122C70.5911 35.3014 70.6343 35.3176 70.6559 35.3609C70.6776 35.4043 70.6884 35.4855 70.6884 35.6101C70.6884 35.7184 70.6667 35.8051 70.6235 35.8647C70.5802 35.9243 70.51 35.9622 70.4073 35.973C70.3153 35.9947 70.2234 36.0001 70.1261 36.0001Z" fill="#282827"/>
<path d="M72.6455 36.0001C72.2887 36.0001 71.9752 35.9351 71.7157 35.7997C71.4562 35.6642 71.2562 35.4747 71.1156 35.2255C70.9751 34.9763 70.9048 34.6838 70.9048 34.348C70.9048 34.0175 70.9751 33.7305 71.1102 33.4813C71.2454 33.2321 71.4346 33.0425 71.6724 32.9017C71.9103 32.7608 72.186 32.6904 72.4942 32.6904C72.9429 32.6904 73.2997 32.8313 73.5592 33.1184C73.8186 33.4054 73.9538 33.7955 73.9538 34.2884C73.9538 34.4509 73.8511 34.5267 73.6402 34.5267H71.6833C71.7427 35.0955 72.0671 35.3772 72.6563 35.3772C72.7699 35.3772 72.8942 35.3609 73.0348 35.3338C73.1753 35.3067 73.3105 35.258 73.4348 35.1876C73.5483 35.1226 73.6402 35.1009 73.7213 35.128C73.797 35.1497 73.8565 35.1984 73.8889 35.2688C73.9214 35.3392 73.9268 35.4151 73.8997 35.5017C73.8781 35.5884 73.8132 35.6588 73.7159 35.7184C73.5646 35.8159 73.3916 35.8863 73.1915 35.9297C72.9969 35.9784 72.8131 36.0001 72.6455 36.0001ZM72.5266 33.2484C72.2887 33.2484 72.0941 33.3242 71.9482 33.4704C71.8022 33.6167 71.7103 33.8171 71.6833 34.0663H73.278C73.2618 33.8009 73.1861 33.6005 73.0618 33.4596C72.9375 33.3188 72.7591 33.2484 72.5266 33.2484Z" fill="#282827"/>
<path d="M75.0134 35.9895C74.7377 35.9895 74.5972 35.8487 74.5972 35.5724V33.1132C74.5972 32.8424 74.7269 32.7015 74.9918 32.7015C75.2567 32.7015 75.3865 32.837 75.3865 33.1132V33.3136C75.5432 32.9399 75.873 32.734 76.3866 32.6907C76.5704 32.669 76.6785 32.7774 76.7001 33.0103C76.7218 33.2378 76.6082 33.3678 76.3649 33.3949L76.2244 33.4057C75.6946 33.4599 75.4243 33.7307 75.4243 34.2236V35.567C75.4189 35.8487 75.2837 35.9895 75.0134 35.9895Z" fill="#282827"/>
<path d="M81.106 36.0002C80.6303 36.0002 80.2249 35.9027 79.8843 35.7131C79.5437 35.5181 79.2842 35.2472 79.1004 34.8951C78.9166 34.543 78.8301 34.1259 78.8301 33.6439C78.8301 33.1618 78.922 32.7447 79.1004 32.398C79.2842 32.0459 79.5437 31.7751 79.8843 31.5801C80.2249 31.3851 80.6303 31.293 81.106 31.293C81.3439 31.293 81.5764 31.3255 81.8088 31.3851C82.0359 31.4446 82.2413 31.5313 82.4143 31.6451C82.5278 31.7209 82.5927 31.8076 82.6143 31.9105C82.636 32.0134 82.6252 32.1055 82.5765 32.1922C82.5278 32.2788 82.4576 32.333 82.3603 32.3601C82.263 32.3872 82.1602 32.3655 82.0413 32.2842C81.9061 32.1976 81.7602 32.1326 81.6088 32.0947C81.452 32.0567 81.2953 32.0351 81.1331 32.0351C80.6682 32.0351 80.3168 32.1759 80.0735 32.4522C79.8302 32.7338 79.7113 33.1293 79.7113 33.6439C79.7113 34.1584 79.8302 34.5593 80.0735 34.841C80.3168 35.1226 80.6682 35.2635 81.1331 35.2635C81.2953 35.2635 81.4574 35.2418 81.6196 35.2039C81.7818 35.1606 81.9332 35.101 82.0737 35.0143C82.1927 34.9385 82.2954 34.9168 82.3873 34.9439C82.4792 34.971 82.5441 35.0251 82.5927 35.101C82.636 35.1822 82.6522 35.2689 82.636 35.3664C82.6198 35.4639 82.5603 35.5451 82.463 35.621C82.29 35.7456 82.0846 35.8431 81.8413 35.9081C81.5926 35.9677 81.3493 36.0002 81.106 36.0002Z" fill="#282827"/>
<path d="M84.647 36.0001C84.2902 36.0001 83.9767 35.9351 83.7172 35.7997C83.4577 35.6642 83.2576 35.4747 83.1171 35.2255C82.9765 34.9763 82.9062 34.6838 82.9062 34.348C82.9062 34.0175 82.9765 33.7305 83.1117 33.4813C83.2468 33.2321 83.4361 33.0425 83.6739 32.9017C83.9118 32.7608 84.1875 32.6904 84.4956 32.6904C84.9444 32.6904 85.3012 32.8313 85.5606 33.1184C85.8201 33.4054 85.9553 33.7955 85.9553 34.2884C85.9553 34.4509 85.8526 34.5267 85.6417 34.5267H83.6847C83.7442 35.0955 84.0686 35.3772 84.6578 35.3772C84.7714 35.3772 84.8957 35.3609 85.0363 35.3338C85.1768 35.3067 85.312 35.258 85.4363 35.1876C85.5498 35.1226 85.6417 35.1009 85.7228 35.128C85.7985 35.1497 85.858 35.1984 85.8904 35.2688C85.9229 35.3392 85.9283 35.4151 85.9012 35.5017C85.8796 35.5884 85.8147 35.6588 85.7174 35.7184C85.5661 35.8159 85.3931 35.8863 85.193 35.9297C84.9984 35.9784 84.8146 36.0001 84.647 36.0001ZM84.5281 33.2484C84.2902 33.2484 84.0956 33.3242 83.9496 33.4704C83.8037 33.6167 83.7118 33.8171 83.6847 34.0663H85.2795C85.2633 33.8009 85.1876 33.6005 85.0633 33.4596C84.9389 33.3188 84.7605 33.2484 84.5281 33.2484Z" fill="#282827"/>
<path d="M86.9987 35.9893C86.7284 35.9893 86.5986 35.8484 86.5986 35.5722V33.1129C86.5986 32.8421 86.7284 32.7013 86.9933 32.7013C87.2582 32.7013 87.3879 32.8367 87.3879 33.1129V33.2484C87.496 33.0642 87.642 32.9288 87.8258 32.8313C88.0096 32.7338 88.215 32.6904 88.4475 32.6904C89.1935 32.6904 89.572 33.1238 89.572 33.9959V35.5667C89.572 35.843 89.4368 35.9838 89.1719 35.9838C88.9016 35.9838 88.7611 35.843 88.7611 35.5667V34.0338C88.7611 33.7846 88.7124 33.6059 88.6205 33.4921C88.5286 33.3784 88.3826 33.3242 88.188 33.3242C87.9502 33.3242 87.7609 33.4 87.6204 33.5463C87.4798 33.698 87.4095 33.893 87.4095 34.1421V35.5667C87.4095 35.8484 87.2744 35.9893 86.9987 35.9893Z" fill="#282827"/>
<path d="M91.8479 36.0001C91.0099 36.0001 90.5883 35.583 90.5883 34.7543V33.3676H90.2531C90.0368 33.3676 89.9287 33.2647 89.9287 33.0642C89.9287 32.8584 90.0368 32.7609 90.2531 32.7609H90.5883V32.1705C90.5883 31.8996 90.7234 31.7588 90.9991 31.7588C91.2694 31.7588 91.3992 31.8942 91.3992 32.1705V32.7609H92.0857C92.302 32.7609 92.4101 32.8638 92.4101 33.0642C92.4101 33.2701 92.302 33.3676 92.0857 33.3676H91.3992V34.7055C91.3992 34.9114 91.4424 35.0684 91.5343 35.1714C91.6262 35.2743 91.7722 35.3285 91.9776 35.3285C92.0533 35.3285 92.1182 35.323 92.1722 35.3068C92.2263 35.296 92.2804 35.2851 92.3236 35.2797C92.3777 35.2743 92.4209 35.2905 92.4533 35.3285C92.4858 35.3664 92.5074 35.4422 92.5074 35.5505C92.5074 35.6372 92.4912 35.713 92.4642 35.7835C92.4371 35.8485 92.3831 35.8972 92.3128 35.9243C92.2587 35.9406 92.183 35.9568 92.0911 35.9731C91.9938 35.9947 91.9181 36.0001 91.8479 36.0001Z" fill="#282827"/>
<path d="M93.302 35.9895C93.0263 35.9895 92.8857 35.8487 92.8857 35.5724V33.1132C92.8857 32.8424 93.0155 32.7015 93.2804 32.7015C93.5453 32.7015 93.675 32.837 93.675 33.1132V33.3136C93.8318 32.9399 94.1616 32.734 94.6752 32.6907C94.859 32.669 94.9671 32.7774 94.9887 33.0103C95.0103 33.2378 94.8968 33.3678 94.6535 33.3949L94.513 33.4057C93.9832 33.4599 93.7129 33.7307 93.7129 34.2236V35.567C93.7075 35.8487 93.5723 35.9895 93.302 35.9895Z" fill="#282827"/>
<path d="M96.94 36.0001C96.5832 36.0001 96.2696 35.9351 96.0101 35.7997C95.7506 35.6642 95.5506 35.4747 95.4101 35.2255C95.2695 34.9763 95.1992 34.6838 95.1992 34.348C95.1992 34.0175 95.2695 33.7305 95.4047 33.4813C95.5398 33.2321 95.729 33.0425 95.9669 32.9017C96.2047 32.7608 96.4805 32.6904 96.7886 32.6904C97.2373 32.6904 97.5941 32.8313 97.8536 33.1184C98.1131 33.4054 98.2483 33.7955 98.2483 34.2884C98.2483 34.4509 98.1455 34.5267 97.9347 34.5267H95.9777C96.0372 35.0955 96.3615 35.3772 96.9508 35.3772C97.0643 35.3772 97.1887 35.3609 97.3292 35.3338C97.4698 35.3067 97.6049 35.258 97.7293 35.1876C97.8428 35.1226 97.9347 35.1009 98.0158 35.128C98.0915 35.1497 98.1509 35.1984 98.1834 35.2688C98.2158 35.3392 98.2212 35.4151 98.1942 35.5017C98.1726 35.5884 98.1077 35.6588 98.0104 35.7184C97.859 35.8159 97.686 35.8863 97.486 35.9297C97.2914 35.9784 97.1076 36.0001 96.94 36.0001ZM96.821 33.2484C96.5832 33.2484 96.3886 33.3242 96.2426 33.4704C96.0966 33.6167 96.0047 33.8171 95.9777 34.0663H97.5725C97.5563 33.8009 97.4806 33.6005 97.3562 33.4596C97.2319 33.3188 97.0535 33.2484 96.821 33.2484Z" fill="#282827"/>
</svg>
